<svg width="1401" height="558" viewBox="0 0 1401 558" fill="none" xmlns="http://www.w3.org/2000/svg">
<path d="M1072.47 198.704H1021.72V183.312L1069.56 79.52H1087.45V184.976H1106.79V198.704H1087.45V248H1072.47V198.704ZM1072.47 184.976V99.696L1037.11 184.976H1072.47ZM1166.75 250.08C1140.12 250.08 1126.81 233.509 1126.81 200.368V127.152C1126.81 94.288 1140.12 77.856 1166.75 77.856C1193.65 77.856 1207.1 94.288 1207.1 127.152V200.368C1207.1 216.037 1203.98 228.24 1197.74 236.976C1191.5 245.712 1181.17 250.08 1166.75 250.08ZM1166.75 238.016C1175.76 238.016 1182.14 234.757 1185.88 228.24C1189.63 221.723 1191.5 212.848 1191.5 201.616V126.112C1191.5 114.741 1189.63 105.867 1185.88 99.488C1182.28 93.1093 1175.9 89.92 1166.75 89.92C1157.73 89.92 1151.36 93.1093 1147.61 99.488C1144.01 105.867 1142.2 114.741 1142.2 126.112V201.616C1142.2 225.883 1150.38 238.016 1166.75 238.016Z" fill="#FFCF70"/>
<ellipse cx="672.023" cy="271.66" rx="164.453" ry="165.447" fill="#FFCF70"/>
<path d="M1051.69 351.319C1051.69 351.319 677.099 558.638 674.053 567.319C673.835 567.941 674.053 574.468 674.053 574.468L1403.94 576C1413.69 572.323 1402.08 486.468 1403.94 428.936L1051.69 351.319Z" fill="white"/>
<path d="M673.038 271.66L429.404 394.213M673.038 271.66V500.938M673.038 271.66L720.242 281.872M1406.99 427.915L1050.67 353.362M1050.67 353.362L1003.47 343.149M1050.67 353.362L1003.47 380.043M348.193 435.064L259.876 479.489M348.193 435.064L333.255 520.851M348.193 435.064L388.799 451.532M348.193 435.064L429.404 394.213M673.038 566.812L632.433 550.344M673.038 566.812V500.938M673.038 566.812L720.242 540.131M63.9531 574.644L171.558 523.915L259.876 479.489M259.876 479.489L333.255 520.851M333.255 520.851L324.8 569.405M510.616 500.938L470.01 484.469M510.616 500.938L551.221 517.407M510.616 500.938L498.693 569.405M591.827 533.875L551.221 517.407M591.827 533.875L632.433 550.344M591.827 533.875L585.64 569.405M429.404 468.001L470.01 484.469M429.404 468.001L388.799 451.532M429.404 468.001L411.747 569.405M470.01 484.469L455.22 569.405M388.799 451.532L368.273 569.405M551.221 517.407L542.167 569.405M632.433 550.344L624.311 574.644M487.775 364.851L673.038 435.064M570.761 316.918L673.038 361.343M429.404 394.213L673.038 500.938M861.855 312.511V460.087M861.855 312.511L909.059 322.723M861.855 312.511L814.651 302.298M861.855 460.087L909.059 433.406M861.855 460.087L814.651 486.768M956.263 332.936V406.724M956.263 332.936L909.059 322.723M956.263 332.936L1003.47 343.149M956.263 406.724L909.059 433.406M956.263 406.724L1003.47 380.043M909.059 322.723V433.406M1003.47 343.149V380.043M767.446 292.085V513.45M767.446 292.085L814.651 302.298M767.446 292.085L720.242 281.872M767.446 513.45L814.651 486.768M767.446 513.45L720.242 540.131M814.651 302.298V486.768M720.242 281.872V540.131" stroke="#FFCF70" stroke-width="15" stroke-linecap="round" stroke-linejoin="round"/>
<path d="M1411.94 335.2L1422.74 344.2L1409.24 363.1L1431.74 370.3L1427.24 383.8L1404.74 376.6L1404.74 400L1390.34 400L1390.34 376.6L1367.84 383.8L1363.34 370.3L1385.84 363.1L1372.34 344.2L1383.14 335.2L1397.54 354.1L1411.94 335.2Z" fill="#FFCF70"/>
<path d="M1247.98 284.011L1262 285.031L1262.05 308.257L1284.53 300.996L1288.74 314.589L1266.26 321.85L1279.9 340.866L1268.19 349.258L1254.56 330.242L1240.47 349.206L1228.94 340.857L1243.03 321.894L1221.05 314.403L1224.58 300.795L1247.3 307.762L1247.98 284.011Z" fill="#FFCF70"/>
<path d="M1350.98 184.011L1365 185.031L1365.05 208.257L1387.53 200.996L1391.74 214.589L1369.26 221.85L1382.9 240.866L1371.19 249.258L1357.56 230.242L1343.47 249.206L1331.94 240.857L1346.03 221.894L1324.05 214.403L1327.58 200.795L1350.3 207.762L1350.98 184.011Z" fill="#FFCF70"/>
<path d="M298.503 303.027C298.503 303.027 246.877 249.653 158.339 299.775C69.8009 349.897 97.1765 419.238 97.1765 419.238" stroke="#FFCF70" stroke-width="15"/>
<path d="M43.2636 449.895L106.654 413.305L150.618 387.928C150.618 387.928 181.517 419.776 215.296 399.294C249.074 378.813 238.546 337.174 238.546 337.174L282.51 311.797C282.51 311.797 312.305 294.598 346.643 274.777" stroke="#FFCF70" stroke-width="15" stroke-linecap="round" stroke-linejoin="round"/>
<path d="M150.5 299.5L102 212" stroke="#FFCF70" stroke-width="15" stroke-linecap="round" stroke-linejoin="round"/>
<path d="M239.295 276.167L266.872 180" stroke="#FFCF70" stroke-width="15" stroke-linecap="round" stroke-linejoin="round"/>
<path d="M-2.99988 359.002L97.0273 360.75" stroke="#FFCF70" stroke-width="15" stroke-linecap="round" stroke-linejoin="round"/>
</svg>
