<svg width="320" height="1123" viewBox="0 0 320 1123" fill="none" xmlns="http://www.w3.org/2000/svg">
<path d="M-27 161H12.2621M12.2621 161V115M12.2621 161H173.4H310V266.5M36 52H133.25M281.5 88V52H256M230.5 52V-13M230.5 52H181.875M230.5 52H256M133.25 52V115M133.25 52H157.562M181.875 52V77M181.875 52H157.562M256 52V100.5M157.562 52V25.5M310 266.5V304.414C310 304.414 336.5 306.828 336.5 340C336.5 373.172 310 380.242 310 380.242V418.156M310 266.5C310 266.5 295.631 265.213 282 275.345M310 418.156V530.25V750.5H12.2621V895.25M310 418.156C310 418.156 295.631 418.156 282 406.804M258 340C258 325.459 259.8 313.785 262.73 304.414M258 340C258 354.541 259.8 366.376 262.73 376.009M258 340H218.5M262.73 304.414C267.27 289.893 274.524 280.902 282 275.345M262.73 304.414L226 288.5M282 275.345L262.73 245M262.73 376.009C267.27 390.937 274.524 400.578 282 406.804M262.73 376.009L226 393.5M282 406.804L262.73 431M12.2621 1097V1017.5M12.2621 895.25H-19.5M12.2621 895.25V967.625M12.2621 967.625H-19.5M12.2621 967.625V1017.5M12.2621 1017.5H104" stroke="#D2DCFB" stroke-width="10" stroke-linecap="round" stroke-linejoin="round"/>
<ellipse cy="44.5" rx="89" ry="87.5" fill="#D2DCFB"/>
<path d="M364.521 974.398C345.534 967.226 331.61 981.571 331.61 981.571C331.61 981.571 315.998 968.913 296.59 972.711C277.181 976.508 270.008 992.12 270.008 992.12C270.008 992.12 241.317 992.12 234.988 1014.06C228.659 1036 254.818 1047.39 254.818 1047.39C254.818 1047.39 256.085 1061.74 280.134 1067.22C304.184 1072.71 315.998 1054.57 315.998 1054.57C315.998 1054.57 331.61 1068.49 346.799 1063.85C361.989 1059.21 370.006 1045.28 370.006 1045.28C370.006 1045.28 400.385 1049.08 405.448 1028.83C410.511 1008.57 383.507 1001.82 383.507 1001.82C383.507 1001.82 383.507 981.571 364.521 974.398Z" stroke="#D2DCFB" stroke-width="10"/>
<path d="M251.864 1062.58L252.612 1061.92L250.158 1059.15L250.884 1062.78L251.864 1062.58ZM251.864 1062.58C252.612 1061.92 252.612 1061.92 252.613 1061.92L252.613 1061.92L252.614 1061.92L252.616 1061.92L252.626 1061.93L252.66 1061.97C252.69 1062.01 252.733 1062.06 252.788 1062.12C252.898 1062.25 253.055 1062.43 253.247 1062.66C253.631 1063.13 254.157 1063.78 254.723 1064.54C255.84 1066.04 257.177 1068.03 257.862 1069.82C258.487 1071.46 258.956 1072.83 259.079 1073.77C259.111 1074.01 259.126 1074.27 259.1 1074.51C259.075 1074.75 259.003 1075.06 258.792 1075.34C258.267 1076.03 257.46 1075.91 257.033 1075.77C256.23 1075.5 255.53 1075.07 254.869 1074.21C254.248 1073.41 253.679 1072.24 253.038 1070.53C252.385 1068.79 251.847 1066.85 251.474 1065.36C251.287 1064.61 251.14 1063.96 251.039 1063.51C250.989 1063.28 250.95 1063.1 250.924 1062.97C250.911 1062.91 250.901 1062.86 250.894 1062.83L250.887 1062.79L250.885 1062.78L250.884 1062.78L250.884 1062.78L250.884 1062.78C250.884 1062.78 250.884 1062.78 251.864 1062.58Z" fill="#D2DCFB" stroke="#D2DCFB" stroke-width="2"/>
<path d="M272.117 1081.57L272.865 1080.91L270.411 1078.14L271.137 1081.76L272.117 1081.57ZM272.117 1081.57C272.865 1080.91 272.865 1080.91 272.866 1080.91L272.866 1080.91L272.867 1080.91L272.869 1080.91L272.879 1080.92L272.913 1080.96C272.943 1080.99 272.986 1081.04 273.041 1081.11C273.151 1081.23 273.308 1081.42 273.5 1081.65C273.884 1082.11 274.41 1082.77 274.976 1083.53C276.093 1085.02 277.43 1087.01 278.115 1088.81C278.74 1090.44 279.209 1091.82 279.332 1092.75C279.364 1093 279.379 1093.25 279.353 1093.5C279.328 1093.74 279.255 1094.05 279.045 1094.33C278.52 1095.02 277.713 1094.9 277.286 1094.75C276.483 1094.49 275.783 1094.06 275.122 1093.2C274.501 1092.39 273.932 1091.22 273.291 1089.51C272.638 1087.78 272.1 1085.84 271.727 1084.34C271.54 1083.59 271.393 1082.95 271.292 1082.5C271.242 1082.27 271.203 1082.09 271.177 1081.96C271.164 1081.9 271.154 1081.85 271.147 1081.82L271.139 1081.78L271.137 1081.77L271.137 1081.77L271.137 1081.77L271.137 1081.77C271.137 1081.77 271.137 1081.76 272.117 1081.57Z" fill="#D2DCFB" stroke="#D2DCFB" stroke-width="2"/>
<path d="M283.087 1076.51L283.835 1075.84L281.381 1073.08L282.106 1076.7L283.087 1076.51ZM283.087 1076.51C283.835 1075.84 283.835 1075.84 283.835 1075.84L283.836 1075.84L283.836 1075.84L283.839 1075.85L283.848 1075.86L283.883 1075.9C283.913 1075.93 283.956 1075.98 284.011 1076.04C284.12 1076.17 284.278 1076.36 284.47 1076.59C284.854 1077.05 285.379 1077.7 285.946 1078.46C287.062 1079.96 288.4 1081.95 289.085 1083.74C289.71 1085.38 290.178 1086.76 290.302 1087.69C290.334 1087.93 290.349 1088.19 290.323 1088.44C290.298 1088.68 290.225 1088.99 290.015 1089.26C289.489 1089.96 288.683 1089.83 288.256 1089.69C287.453 1089.42 286.752 1089 286.092 1088.14C285.471 1087.33 284.901 1086.16 284.26 1084.45C283.608 1082.71 283.07 1080.77 282.697 1079.28C282.51 1078.53 282.363 1077.89 282.262 1077.43C282.212 1077.21 282.173 1077.02 282.147 1076.9C282.134 1076.84 282.124 1076.79 282.117 1076.75L282.109 1076.72L282.107 1076.71L282.107 1076.7L282.106 1076.7L282.106 1076.7C282.106 1076.7 282.106 1076.7 283.087 1076.51Z" fill="#D2DCFB" stroke="#D2DCFB" stroke-width="2"/>
<path d="M310.935 1066.38L311.683 1065.72L309.229 1062.95L309.954 1066.58L310.935 1066.38ZM310.935 1066.38C311.683 1065.72 311.683 1065.72 311.683 1065.72L311.683 1065.72L311.684 1065.72L311.687 1065.72L311.696 1065.73L311.73 1065.77C311.76 1065.8 311.803 1065.85 311.858 1065.92C311.968 1066.05 312.125 1066.23 312.318 1066.46C312.702 1066.92 313.227 1067.58 313.793 1068.34C314.91 1069.83 316.248 1071.82 316.932 1073.62C317.557 1075.25 318.026 1076.63 318.149 1077.56C318.182 1077.81 318.197 1078.06 318.171 1078.31C318.145 1078.55 318.073 1078.86 317.863 1079.14C317.337 1079.83 316.531 1079.71 316.103 1079.56C315.301 1079.3 314.6 1078.87 313.939 1078.01C313.318 1077.2 312.749 1076.03 312.108 1074.33C311.456 1072.59 310.918 1070.65 310.545 1069.15C310.357 1068.4 310.21 1067.76 310.11 1067.31C310.059 1067.08 310.021 1066.9 309.995 1066.77C309.981 1066.71 309.971 1066.66 309.965 1066.63L309.957 1066.59L309.955 1066.58L309.954 1066.58L309.954 1066.58L309.954 1066.58C309.954 1066.58 309.954 1066.58 310.935 1066.38Z" fill="#D2DCFB" stroke="#D2DCFB" stroke-width="2"/>
<path d="M313.466 1087.48L314.214 1086.81L311.76 1084.05L312.485 1087.67L313.466 1087.48ZM313.466 1087.48C314.214 1086.81 314.214 1086.81 314.214 1086.81L314.214 1086.81L314.215 1086.81L314.218 1086.82L314.227 1086.83L314.262 1086.87C314.291 1086.9 314.335 1086.95 314.39 1087.01C314.499 1087.14 314.657 1087.33 314.849 1087.56C315.233 1088.02 315.758 1088.67 316.325 1089.43C317.441 1090.93 318.779 1092.92 319.464 1094.71C320.089 1096.35 320.557 1097.73 320.681 1098.66C320.713 1098.9 320.728 1099.16 320.702 1099.41C320.676 1099.65 320.604 1099.96 320.394 1100.23C319.868 1100.93 319.062 1100.8 318.635 1100.66C317.832 1100.39 317.131 1099.97 316.471 1099.11C315.849 1098.3 315.28 1097.13 314.639 1095.42C313.987 1093.68 313.449 1091.74 313.076 1090.25C312.889 1089.5 312.741 1088.86 312.641 1088.4C312.591 1088.18 312.552 1087.99 312.526 1087.87C312.513 1087.81 312.503 1087.76 312.496 1087.72L312.488 1087.69L312.486 1087.68L312.485 1087.67L312.485 1087.67L312.485 1087.67C312.485 1087.67 312.485 1087.67 313.466 1087.48Z" fill="#D2DCFB" stroke="#D2DCFB" stroke-width="2"/>
<path d="M307.56 1108.57L308.308 1107.91L305.854 1105.14L306.579 1108.77L307.56 1108.57ZM307.56 1108.57C308.308 1107.91 308.308 1107.91 308.308 1107.91L308.308 1107.91L308.309 1107.91L308.312 1107.91L308.321 1107.92L308.355 1107.96C308.385 1108 308.428 1108.05 308.483 1108.11C308.593 1108.24 308.75 1108.42 308.943 1108.65C309.327 1109.12 309.852 1109.77 310.418 1110.53C311.535 1112.03 312.873 1114.02 313.557 1115.81C314.182 1117.45 314.651 1118.82 314.774 1119.76C314.807 1120 314.822 1120.26 314.796 1120.5C314.77 1120.74 314.698 1121.05 314.488 1121.33C313.962 1122.02 313.156 1121.9 312.728 1121.76C311.926 1121.49 311.225 1121.06 310.564 1120.21C309.943 1119.4 309.374 1118.23 308.733 1116.52C308.081 1114.78 307.543 1112.84 307.17 1111.35C306.982 1110.6 306.835 1109.96 306.735 1109.5C306.684 1109.27 306.646 1109.09 306.62 1108.97C306.606 1108.9 306.596 1108.85 306.59 1108.82L306.582 1108.78L306.58 1108.77L306.579 1108.77L306.579 1108.77L306.579 1108.77C306.579 1108.77 306.579 1108.77 307.56 1108.57Z" fill="#D2DCFB" stroke="#D2DCFB" stroke-width="2"/>
<path d="M71.6235 278.8L78.8235 284.8L69.8235 297.4L84.8235 302.2L81.8235 311.2L66.8235 306.4L66.8235 322L57.2235 322L57.2235 306.4L42.2235 311.2L39.2235 302.2L54.2235 297.4L45.2235 284.8L52.4235 278.8L62.0235 291.4L71.6235 278.8Z" fill="#D2DCFB"/>
<path d="M7.31893 316.705L16.6665 317.385L16.6956 332.869L31.6825 328.028L34.4895 337.09L19.5026 341.931L28.5938 354.608L20.7925 360.203L11.7013 347.525L2.30899 360.168L-5.37383 354.602L4.01847 341.96L-10.6381 336.966L-8.28375 327.894L6.86046 332.538L7.31893 316.705Z" fill="#D2DCFB"/>
<path d="M3.31893 235.705L12.6665 236.385L12.6956 251.869L27.6825 247.028L30.4895 256.09L15.5026 260.931L24.5938 273.608L16.7925 279.203L7.7013 266.525L-1.69101 279.168L-9.37383 273.602L0.0184745 260.96L-14.6381 255.966L-12.2837 246.894L2.86046 251.538L3.31893 235.705Z" fill="#D2DCFB"/>
</svg>
