<svg width="1401" height="1843" viewBox="0 0 1401 1843" fill="none" xmlns="http://www.w3.org/2000/svg">
<circle cx="657.672" cy="1567" r="111.5" stroke="#FFF446" stroke-width="15"/>
<path d="M777 1545.44L802.217 1519.04L852.535 1462.02M852.535 1462.02V1619M852.535 1462.02L902.854 1405V1619M955 1405V1619" stroke="#FFF446" stroke-width="15" stroke-linecap="round" stroke-linejoin="round"/>
<path d="M0 1523.29L548.328 1523.29M1.63136e-07 1572.62L539.819 1572.62M-6.96764e-07 1619.65L554 1619.66" stroke="#FFF446" stroke-width="15" stroke-linecap="round" stroke-linejoin="round"/>
<path d="M1085 1618L1455 1836.5" stroke="#FFF446" stroke-width="15"/>
<path d="M439.708 -127.208H388.748V-139.48H455.308V-131.992L421.82 29H406.844L439.708 -127.208ZM515.699 31.08C502.942 31.08 493.513 27.4747 487.411 20.264C481.31 13.0533 478.259 3 478.259 -9.896V-14.056H493.027V-10.52C493.166 -1.09067 494.969 6.12 498.435 11.112C501.902 16.104 507.657 18.6 515.699 18.6C523.881 18.6 529.982 15.8267 534.003 10.28C538.163 4.73333 540.243 -4.28 540.243 -16.76C540.243 -40.056 531.854 -51.9813 515.075 -52.536H510.915V-67.096H515.075C524.089 -67.096 530.537 -69.592 534.419 -74.584C538.302 -79.576 540.243 -87.7573 540.243 -99.128C540.243 -108.557 538.51 -115.837 535.043 -120.968C531.577 -126.237 525.683 -128.872 517.363 -128.872C508.905 -128.872 502.734 -126.515 498.851 -121.8C495.107 -117.085 493.166 -109.667 493.027 -99.544V-96.632H478.259V-100.584C478.259 -127.624 491.225 -141.144 517.155 -141.144C530.051 -141.144 539.689 -137.331 546.067 -129.704C552.585 -122.216 555.843 -112.024 555.843 -99.128C555.843 -87.7573 553.625 -78.744 549.187 -72.088C544.889 -65.5707 539.065 -61.4107 531.715 -59.608C538.649 -57.8053 544.403 -53.368 548.979 -46.296C553.555 -39.224 555.843 -29.448 555.843 -16.968C555.843 -1.992 552.585 9.79467 546.067 18.392C539.55 26.8507 529.427 31.08 515.699 31.08ZM576.731 17.768L622.075 -51.704C622.63 -52.536 623.115 -53.2987 623.531 -53.992C624.086 -54.6853 624.502 -55.24 624.779 -55.656C630.464 -64.5307 634.624 -72.0187 637.259 -78.12C640.032 -84.2213 641.419 -91.3627 641.419 -99.544C641.419 -108.696 639.547 -115.768 635.803 -120.76C632.059 -125.891 626.443 -128.456 618.955 -128.456C609.248 -128.456 602.523 -125.336 598.779 -119.096C595.035 -112.995 593.163 -104.397 593.163 -93.304V-89.56H577.979V-93.72C577.979 -109.528 581.168 -121.384 587.547 -129.288C594.064 -137.192 604.326 -141.144 618.331 -141.144C630.811 -141.144 640.31 -137.4 646.827 -129.912C653.344 -122.563 656.603 -112.024 656.603 -98.296C656.603 -91.9173 655.702 -85.8853 653.899 -80.2C652.096 -74.5147 649.878 -69.384 647.243 -64.808C644.747 -60.3707 641.211 -54.616 636.635 -47.544L594.619 16.104H653.067V29H576.731V17.768Z" fill="#FFF446"/>
<circle cx="1234" cy="294" r="245.5" stroke="#FFF446" stroke-width="15"/>
<path d="M1240.77 545L1231 47L1313.08 59L1379.52 99L1418.6 139L1461.6 221L1487 391L1379.52 489L1330.66 521L1240.77 545Z" fill="#FFF446"/>
<path d="M1077 106L653 -364M987 323.666H239M95 49V323.666H239M239 323.666V486.841M1085 1404.5H906.5M758.5 1621H1089.5V1404.5" stroke="#FFF446" stroke-width="15" stroke-linecap="round" stroke-linejoin="round"/>
<path d="M700.44 1500.17C681.454 1493 667.53 1507.34 667.53 1507.34C667.53 1507.34 651.918 1494.69 632.51 1498.48C613.101 1502.28 605.928 1517.89 605.928 1517.89C605.928 1517.89 577.237 1517.89 570.908 1539.83C564.579 1561.77 590.738 1573.16 590.738 1573.16C590.738 1573.16 592.004 1587.51 616.054 1593C640.104 1598.48 651.918 1580.34 651.918 1580.34C651.918 1580.34 667.53 1594.26 682.719 1589.62C697.909 1584.98 705.926 1571.06 705.926 1571.06C705.926 1571.06 736.305 1574.85 741.368 1554.6C746.431 1534.35 719.427 1527.6 719.427 1527.6C719.427 1527.6 719.427 1507.34 700.44 1500.17Z" stroke="#FFF446" stroke-width="10"/>
<path d="M587.785 1588.35L588.533 1587.69L586.079 1584.92L586.805 1588.55L587.785 1588.35ZM587.785 1588.35C588.533 1587.69 588.533 1587.69 588.533 1587.69L588.534 1587.69L588.535 1587.69L588.537 1587.7L588.547 1587.71L588.581 1587.75C588.611 1587.78 588.654 1587.83 588.709 1587.89C588.819 1588.02 588.976 1588.21 589.168 1588.44C589.552 1588.9 590.078 1589.55 590.644 1590.31C591.761 1591.81 593.098 1593.8 593.783 1595.59C594.408 1597.23 594.877 1598.6 595 1599.54C595.032 1599.78 595.047 1600.04 595.021 1600.29C594.996 1600.53 594.923 1600.84 594.713 1601.11C594.188 1601.81 593.381 1601.68 592.954 1601.54C592.151 1601.27 591.451 1600.85 590.79 1599.99C590.169 1599.18 589.6 1598.01 588.958 1596.3C588.306 1594.56 587.768 1592.62 587.395 1591.13C587.208 1590.38 587.061 1589.74 586.96 1589.28C586.91 1589.05 586.871 1588.87 586.845 1588.75C586.832 1588.68 586.822 1588.64 586.815 1588.6L586.807 1588.56L586.805 1588.55L586.805 1588.55L586.805 1588.55L586.805 1588.55C586.805 1588.55 586.805 1588.55 587.785 1588.35Z" fill="#FFF446" stroke="#FFF446" stroke-width="2"/>
<path d="M608.037 1607.34L608.785 1606.68L606.331 1603.91L607.057 1607.54L608.037 1607.34ZM608.037 1607.34C608.785 1606.68 608.785 1606.68 608.785 1606.68L608.786 1606.68L608.787 1606.68L608.789 1606.68L608.798 1606.69L608.833 1606.73C608.863 1606.77 608.906 1606.82 608.961 1606.88C609.071 1607.01 609.228 1607.19 609.42 1607.42C609.804 1607.89 610.33 1608.54 610.896 1609.3C612.013 1610.8 613.35 1612.79 614.035 1614.58C614.66 1616.22 615.129 1617.59 615.252 1618.53C615.284 1618.77 615.299 1619.03 615.273 1619.27C615.248 1619.51 615.175 1619.82 614.965 1620.1C614.44 1620.79 613.633 1620.67 613.206 1620.53C612.403 1620.26 611.703 1619.83 611.042 1618.97C610.421 1618.17 609.852 1617 609.21 1615.29C608.558 1613.55 608.02 1611.61 607.647 1610.12C607.46 1609.37 607.313 1608.72 607.212 1608.27C607.162 1608.04 607.123 1607.86 607.097 1607.73C607.084 1607.67 607.074 1607.62 607.067 1607.59L607.059 1607.55L607.057 1607.54L607.057 1607.54L607.057 1607.54L607.057 1607.54C607.057 1607.54 607.057 1607.54 608.037 1607.34Z" fill="#FFF446" stroke="#FFF446" stroke-width="2"/>
<path d="M619.008 1602.28L619.756 1601.61L617.302 1598.85L618.027 1602.47L619.008 1602.28ZM619.008 1602.28C619.756 1601.61 619.756 1601.61 619.756 1601.61L619.756 1601.62L619.757 1601.62L619.76 1601.62L619.769 1601.63L619.804 1601.67C619.833 1601.7 619.877 1601.75 619.931 1601.82C620.041 1601.94 620.199 1602.13 620.391 1602.36C620.775 1602.82 621.3 1603.48 621.867 1604.24C622.983 1605.73 624.321 1607.72 625.006 1609.52C625.631 1611.15 626.099 1612.53 626.223 1613.46C626.255 1613.71 626.27 1613.96 626.244 1614.21C626.218 1614.45 626.146 1614.76 625.936 1615.04C625.41 1615.73 624.604 1615.61 624.177 1615.46C623.374 1615.2 622.673 1614.77 622.013 1613.91C621.391 1613.1 620.822 1611.93 620.181 1610.22C619.529 1608.49 618.991 1606.54 618.618 1605.05C618.431 1604.3 618.283 1603.66 618.183 1603.21C618.133 1602.98 618.094 1602.8 618.068 1602.67C618.055 1602.61 618.045 1602.56 618.038 1602.53L618.03 1602.49L618.028 1602.48L618.027 1602.48L618.027 1602.47L618.027 1602.47C618.027 1602.47 618.027 1602.47 619.008 1602.28Z" fill="#FFF446" stroke="#FFF446" stroke-width="2"/>
<path d="M646.855 1592.15L647.604 1591.49L645.15 1588.72L645.875 1592.35L646.855 1592.15ZM646.855 1592.15C647.604 1591.49 647.604 1591.49 647.604 1591.49L647.604 1591.49L647.605 1591.49L647.608 1591.49L647.617 1591.5L647.651 1591.54C647.681 1591.58 647.724 1591.63 647.779 1591.69C647.889 1591.82 648.046 1592 648.239 1592.23C648.623 1592.7 649.148 1593.35 649.714 1594.11C650.831 1595.61 652.168 1597.6 652.853 1599.39C653.478 1601.03 653.947 1602.4 654.07 1603.34C654.103 1603.58 654.118 1603.84 654.092 1604.08C654.066 1604.32 653.994 1604.63 653.784 1604.91C653.258 1605.6 652.452 1605.48 652.024 1605.34C651.222 1605.07 650.521 1604.64 649.86 1603.78C649.239 1602.98 648.67 1601.81 648.029 1600.1C647.377 1598.36 646.839 1596.42 646.465 1594.93C646.278 1594.18 646.131 1593.53 646.031 1593.08C645.98 1592.85 645.942 1592.67 645.915 1592.54C645.902 1592.48 645.892 1592.43 645.886 1592.4L645.878 1592.36L645.876 1592.35L645.875 1592.35L645.875 1592.35L645.875 1592.35C645.875 1592.35 645.875 1592.35 646.855 1592.15Z" fill="#FFF446" stroke="#FFF446" stroke-width="2"/>
<path d="M669.641 1598.06L670.389 1597.4L667.935 1594.63L668.66 1598.26L669.641 1598.06ZM669.641 1598.06C670.389 1597.4 670.389 1597.4 670.389 1597.4L670.389 1597.4L670.39 1597.4L670.393 1597.4L670.402 1597.41L670.436 1597.45C670.466 1597.48 670.509 1597.53 670.564 1597.6C670.674 1597.73 670.831 1597.91 671.024 1598.14C671.408 1598.6 671.933 1599.26 672.5 1600.02C673.616 1601.51 674.954 1603.5 675.638 1605.3C676.263 1606.93 676.732 1608.31 676.855 1609.24C676.888 1609.49 676.903 1609.74 676.877 1609.99C676.851 1610.23 676.779 1610.54 676.569 1610.82C676.043 1611.51 675.237 1611.39 674.81 1611.24C674.007 1610.98 673.306 1610.55 672.645 1609.69C672.024 1608.88 671.455 1607.71 670.814 1606C670.162 1604.27 669.624 1602.33 669.251 1600.83C669.063 1600.08 668.916 1599.44 668.816 1598.99C668.765 1598.76 668.727 1598.58 668.701 1598.45C668.687 1598.39 668.677 1598.34 668.671 1598.31L668.663 1598.27L668.661 1598.26L668.66 1598.26L668.66 1598.26L668.66 1598.26C668.66 1598.26 668.66 1598.26 669.641 1598.06Z" fill="#FFF446" stroke="#FFF446" stroke-width="2"/>
<path d="M694.955 1589.62L695.703 1588.96L693.249 1586.19L693.974 1589.82L694.955 1589.62ZM694.955 1589.62C695.703 1588.96 695.703 1588.96 695.703 1588.96L695.704 1588.96L695.704 1588.96L695.707 1588.96L695.716 1588.97L695.751 1589.01C695.781 1589.04 695.824 1589.09 695.879 1589.16C695.989 1589.29 696.146 1589.47 696.338 1589.7C696.722 1590.17 697.248 1590.82 697.814 1591.58C698.931 1593.07 700.268 1595.07 700.953 1596.86C701.578 1598.49 702.047 1599.87 702.17 1600.8C702.202 1601.05 702.217 1601.3 702.191 1601.55C702.166 1601.79 702.093 1602.1 701.883 1602.38C701.358 1603.07 700.551 1602.95 700.124 1602.8C699.321 1602.54 698.621 1602.11 697.96 1601.25C697.339 1600.45 696.77 1599.28 696.128 1597.57C695.476 1595.83 694.938 1593.89 694.565 1592.39C694.378 1591.65 694.231 1591 694.13 1590.55C694.08 1590.32 694.041 1590.14 694.015 1590.01C694.002 1589.95 693.992 1589.9 693.985 1589.87L693.977 1589.83L693.975 1589.82L693.975 1589.82L693.975 1589.82L693.975 1589.82C693.975 1589.82 693.974 1589.82 694.955 1589.62Z" fill="#FFF446" stroke="#FFF446" stroke-width="2"/>
<path d="M714.365 1588.78L715.113 1588.11L712.659 1585.35L713.385 1588.97L714.365 1588.78ZM714.365 1588.78C715.113 1588.11 715.113 1588.11 715.114 1588.11L715.114 1588.11L715.115 1588.11L715.117 1588.12L715.127 1588.13L715.161 1588.17C715.191 1588.2 715.234 1588.25 715.289 1588.31C715.399 1588.44 715.556 1588.63 715.748 1588.86C716.132 1589.32 716.658 1589.97 717.224 1590.73C718.341 1592.23 719.678 1594.22 720.363 1596.01C720.988 1597.65 721.457 1599.03 721.58 1599.96C721.612 1600.21 721.627 1600.46 721.601 1600.71C721.576 1600.95 721.503 1601.26 721.293 1601.53C720.768 1602.23 719.961 1602.1 719.534 1601.96C718.731 1601.69 718.031 1601.27 717.37 1600.41C716.749 1599.6 716.18 1598.43 715.539 1596.72C714.886 1594.98 714.348 1593.04 713.975 1591.55C713.788 1590.8 713.641 1590.16 713.54 1589.7C713.49 1589.48 713.451 1589.29 713.425 1589.17C713.412 1589.11 713.402 1589.06 713.395 1589.02L713.388 1588.99L713.385 1588.98L713.385 1588.97L713.385 1588.97L713.385 1588.97C713.385 1588.97 713.385 1588.97 714.365 1588.78Z" fill="#FFF446" stroke="#FFF446" stroke-width="2"/>
<path d="M708.457 1610.72L709.205 1610.05L706.751 1607.29L707.476 1610.91L708.457 1610.72ZM708.457 1610.72C709.205 1610.05 709.205 1610.05 709.205 1610.05L709.206 1610.05L709.206 1610.05L709.209 1610.06L709.218 1610.07L709.253 1610.11C709.283 1610.14 709.326 1610.19 709.381 1610.26C709.491 1610.38 709.648 1610.57 709.84 1610.8C710.224 1611.26 710.749 1611.92 711.316 1612.67C712.432 1614.17 713.77 1616.16 714.455 1617.95C715.08 1619.59 715.548 1620.97 715.672 1621.9C715.704 1622.15 715.719 1622.4 715.693 1622.65C715.668 1622.89 715.595 1623.2 715.385 1623.48C714.86 1624.17 714.053 1624.04 713.626 1623.9C712.823 1623.63 712.122 1623.21 711.462 1622.35C710.841 1621.54 710.272 1620.37 709.63 1618.66C708.978 1616.92 708.44 1614.98 708.067 1613.49C707.88 1612.74 707.733 1612.1 707.632 1611.64C707.582 1611.42 707.543 1611.23 707.517 1611.11C707.504 1611.05 707.494 1611 707.487 1610.97L707.479 1610.93L707.477 1610.92L707.477 1610.91L707.477 1610.91L707.476 1610.91C707.476 1610.91 707.476 1610.91 708.457 1610.72Z" fill="#FFF446" stroke="#FFF446" stroke-width="2"/>
<path d="M684.83 1607.34L685.578 1606.68L683.124 1603.91L683.849 1607.54L684.83 1607.34ZM684.83 1607.34C685.578 1606.68 685.578 1606.68 685.578 1606.68L685.579 1606.68L685.579 1606.68L685.582 1606.68L685.591 1606.69L685.626 1606.73C685.656 1606.77 685.699 1606.82 685.754 1606.88C685.864 1607.01 686.021 1607.19 686.213 1607.42C686.597 1607.89 687.123 1608.54 687.689 1609.3C688.806 1610.8 690.143 1612.79 690.828 1614.58C691.453 1616.22 691.922 1617.59 692.045 1618.53C692.077 1618.77 692.092 1619.03 692.066 1619.27C692.041 1619.51 691.968 1619.82 691.758 1620.1C691.233 1620.79 690.426 1620.67 689.999 1620.53C689.196 1620.26 688.496 1619.83 687.835 1618.97C687.214 1618.17 686.645 1617 686.003 1615.29C685.351 1613.55 684.813 1611.61 684.44 1610.12C684.253 1609.37 684.106 1608.72 684.005 1608.27C683.955 1608.04 683.916 1607.86 683.89 1607.73C683.877 1607.67 683.867 1607.62 683.86 1607.59L683.852 1607.55L683.85 1607.54L683.85 1607.54L683.85 1607.54L683.85 1607.54C683.85 1607.54 683.849 1607.54 684.83 1607.34Z" fill="#FFF446" stroke="#FFF446" stroke-width="2"/>
<path d="M692.424 1634.35L693.172 1633.68L690.718 1630.91L691.443 1634.54L692.424 1634.35ZM692.424 1634.35C693.172 1633.68 693.172 1633.68 693.172 1633.68L693.172 1633.68L693.173 1633.68L693.176 1633.69L693.185 1633.7L693.22 1633.74C693.249 1633.77 693.293 1633.82 693.348 1633.88C693.457 1634.01 693.615 1634.2 693.807 1634.43C694.191 1634.89 694.716 1635.54 695.283 1636.3C696.399 1637.8 697.737 1639.79 698.422 1641.58C699.047 1643.22 699.515 1644.59 699.639 1645.53C699.671 1645.77 699.686 1646.03 699.66 1646.28C699.634 1646.52 699.562 1646.83 699.352 1647.1C698.826 1647.8 698.02 1647.67 697.593 1647.53C696.79 1647.26 696.089 1646.84 695.429 1645.98C694.807 1645.17 694.238 1644 693.597 1642.29C692.945 1640.55 692.407 1638.61 692.034 1637.12C691.847 1636.37 691.699 1635.73 691.599 1635.27C691.549 1635.04 691.51 1634.86 691.484 1634.74C691.471 1634.68 691.461 1634.63 691.454 1634.59L691.446 1634.56L691.444 1634.55L691.444 1634.54L691.443 1634.54L691.443 1634.54C691.443 1634.54 691.443 1634.54 692.424 1634.35Z" fill="#FFF446" stroke="#FFF446" stroke-width="2"/>
<path d="M663.732 1634.35L664.481 1633.68L662.027 1630.91L662.752 1634.54L663.732 1634.35ZM663.732 1634.35C664.481 1633.68 664.481 1633.68 664.481 1633.68L664.481 1633.68L664.482 1633.68L664.484 1633.69L664.494 1633.7L664.528 1633.74C664.558 1633.77 664.601 1633.82 664.656 1633.88C664.766 1634.01 664.923 1634.2 665.115 1634.43C665.499 1634.89 666.025 1635.54 666.591 1636.3C667.708 1637.8 669.045 1639.79 669.73 1641.58C670.355 1643.22 670.824 1644.59 670.947 1645.53C670.979 1645.77 670.995 1646.03 670.968 1646.28C670.943 1646.52 670.871 1646.83 670.661 1647.1C670.135 1647.8 669.329 1647.67 668.901 1647.53C668.099 1647.26 667.398 1646.84 666.737 1645.98C666.116 1645.17 665.547 1644 664.906 1642.29C664.254 1640.55 663.715 1638.61 663.342 1637.12C663.155 1636.37 663.008 1635.73 662.908 1635.27C662.857 1635.04 662.819 1634.86 662.792 1634.74C662.779 1634.68 662.769 1634.63 662.762 1634.59L662.755 1634.56L662.753 1634.55L662.752 1634.54L662.752 1634.54L662.752 1634.54C662.752 1634.54 662.752 1634.54 663.732 1634.35Z" fill="#FFF446" stroke="#FFF446" stroke-width="2"/>
<path d="M649.387 1613.25L650.135 1612.58L647.681 1609.82L648.406 1613.44L649.387 1613.25ZM649.387 1613.25C650.135 1612.58 650.135 1612.59 650.135 1612.59L650.135 1612.59L650.136 1612.59L650.139 1612.59L650.148 1612.6L650.183 1612.64C650.212 1612.67 650.255 1612.72 650.31 1612.79C650.42 1612.91 650.578 1613.1 650.77 1613.33C651.154 1613.79 651.679 1614.45 652.246 1615.21C653.362 1616.7 654.7 1618.69 655.385 1620.49C656.009 1622.12 656.478 1623.5 656.602 1624.43C656.634 1624.68 656.649 1624.93 656.623 1625.18C656.597 1625.42 656.525 1625.73 656.315 1626.01C655.789 1626.7 654.983 1626.58 654.556 1626.43C653.753 1626.17 653.052 1625.74 652.392 1624.88C651.77 1624.07 651.201 1622.9 650.56 1621.19C649.908 1619.46 649.37 1617.51 648.997 1616.02C648.809 1615.27 648.662 1614.63 648.562 1614.18C648.512 1613.95 648.473 1613.77 648.447 1613.64C648.434 1613.58 648.424 1613.53 648.417 1613.5L648.409 1613.46L648.407 1613.45L648.406 1613.45L648.406 1613.45L648.406 1613.44C648.406 1613.44 648.406 1613.44 649.387 1613.25Z" fill="#FFF446" stroke="#FFF446" stroke-width="2"/>
<path d="M643.48 1634.35L644.229 1633.68L641.775 1630.91L642.5 1634.54L643.48 1634.35ZM643.48 1634.35C644.229 1633.68 644.229 1633.68 644.229 1633.68L644.229 1633.68L644.23 1633.68L644.233 1633.69L644.242 1633.7L644.276 1633.74C644.306 1633.77 644.349 1633.82 644.404 1633.88C644.514 1634.01 644.671 1634.2 644.864 1634.43C645.248 1634.89 645.773 1635.54 646.339 1636.3C647.456 1637.8 648.793 1639.79 649.478 1641.58C650.103 1643.22 650.572 1644.59 650.695 1645.53C650.728 1645.77 650.743 1646.03 650.717 1646.28C650.691 1646.52 650.619 1646.83 650.409 1647.1C649.883 1647.8 649.077 1647.67 648.649 1647.53C647.847 1647.26 647.146 1646.84 646.485 1645.98C645.864 1645.17 645.295 1644 644.654 1642.29C644.002 1640.55 643.464 1638.61 643.09 1637.12C642.903 1636.37 642.756 1635.73 642.656 1635.27C642.605 1635.04 642.567 1634.86 642.54 1634.74C642.527 1634.68 642.517 1634.63 642.511 1634.59L642.503 1634.56L642.501 1634.55L642.5 1634.54L642.5 1634.54L642.5 1634.54C642.5 1634.54 642.5 1634.54 643.48 1634.35Z" fill="#FFF446" stroke="#FFF446" stroke-width="2"/>
<path d="M1007 197L716.5 57.5" stroke="#FFF446" stroke-width="15" stroke-linecap="round" stroke-linejoin="round"/>
<path d="M890.734 560.885L1038.04 447.708" stroke="#FFF446" stroke-width="15" stroke-linecap="round" stroke-linejoin="round"/>
<path d="M1257.55 771.113L1247.88 449" stroke="#FFF446" stroke-width="15"/>
<path d="M1317.33 146.549L1452.48 -146" stroke="#FFF446" stroke-width="15" stroke-linecap="round" stroke-linejoin="round"/>
<path d="M1241.93 110.86L1232.26 -211.253" stroke="#FFF446" stroke-width="15" stroke-linecap="round" stroke-linejoin="round"/>
<path d="M1414.27 557.838L1355.56 479.102" stroke="#FFF446" stroke-width="15" stroke-linecap="round" stroke-linejoin="round"/>
<path d="M1093 1355.5C1093 1355.5 1085 1350 1071 1362.5C1057 1375 1057 1404 1057 1404" stroke="#FFF446" stroke-width="15"/>
<path d="M1093 1308C1093 1308 1068 1308 1044 1328.5C1020 1349 1018 1403 1018 1403" stroke="#FFF446" stroke-width="15"/>
<path d="M1093 1263C1093 1263 1055.5 1263 1020.5 1304C985.5 1345 978 1404 978 1404" stroke="#FFF446" stroke-width="15"/>
<path d="M1093 1219C1093 1219 1053.5 1219 992.501 1281C931.501 1343 941.001 1403 941.001 1403" stroke="#FFF446" stroke-width="15"/>
<path d="M1093 1175C1093 1175 1028.5 1170.5 961.001 1256C893.501 1341.5 907 1403 907 1403" stroke="#FFF446" stroke-width="15"/>
</svg>
