<svg width="1401" height="1727" viewBox="0 0 1401 1727" fill="none" xmlns="http://www.w3.org/2000/svg">
<circle cx="657.672" cy="1470" r="111.5" stroke="#FFEFD8" stroke-width="15"/>
<path d="M768 1458.5L802.217 1422.04L852.535 1365.02M852.535 1365.02V1505.5M852.535 1365.02L902.854 1308V1505.5M955 1308V1505.5" stroke="#FFEFD8" stroke-width="15" stroke-linecap="round" stroke-linejoin="round"/>
<path d="M0 1422.09L548.328 1422.09M1.63136e-07 1469.89L539.819 1469.89M-6.96763e-07 1515.47L554 1515.47" stroke="#FFEFD8" stroke-width="15" stroke-linecap="round" stroke-linejoin="round"/>
<path d="M1085 1502L1455 1720.5" stroke="#FFEFD8" stroke-width="15"/>
<path d="M439.708 -127.208H388.748V-139.48H455.308V-131.992L421.82 29H406.844L439.708 -127.208ZM515.699 31.08C502.942 31.08 493.513 27.4747 487.411 20.264C481.31 13.0533 478.259 3 478.259 -9.896V-14.056H493.027V-10.52C493.166 -1.09067 494.969 6.12 498.435 11.112C501.902 16.104 507.657 18.6 515.699 18.6C523.881 18.6 529.982 15.8267 534.003 10.28C538.163 4.73333 540.243 -4.28 540.243 -16.76C540.243 -40.056 531.854 -51.9813 515.075 -52.536H510.915V-67.096H515.075C524.089 -67.096 530.537 -69.592 534.419 -74.584C538.302 -79.576 540.243 -87.7573 540.243 -99.128C540.243 -108.557 538.51 -115.837 535.043 -120.968C531.577 -126.237 525.683 -128.872 517.363 -128.872C508.905 -128.872 502.734 -126.515 498.851 -121.8C495.107 -117.085 493.166 -109.667 493.027 -99.544V-96.632H478.259V-100.584C478.259 -127.624 491.225 -141.144 517.155 -141.144C530.051 -141.144 539.689 -137.331 546.067 -129.704C552.585 -122.216 555.843 -112.024 555.843 -99.128C555.843 -87.7573 553.625 -78.744 549.187 -72.088C544.889 -65.5707 539.065 -61.4107 531.715 -59.608C538.649 -57.8053 544.403 -53.368 548.979 -46.296C553.555 -39.224 555.843 -29.448 555.843 -16.968C555.843 -1.992 552.585 9.79467 546.067 18.392C539.55 26.8507 529.427 31.08 515.699 31.08ZM576.731 17.768L622.075 -51.704C622.63 -52.536 623.115 -53.2987 623.531 -53.992C624.086 -54.6853 624.502 -55.24 624.779 -55.656C630.464 -64.5307 634.624 -72.0187 637.259 -78.12C640.032 -84.2213 641.419 -91.3627 641.419 -99.544C641.419 -108.696 639.547 -115.768 635.803 -120.76C632.059 -125.891 626.443 -128.456 618.955 -128.456C609.248 -128.456 602.523 -125.336 598.779 -119.096C595.035 -112.995 593.163 -104.397 593.163 -93.304V-89.56H577.979V-93.72C577.979 -109.528 581.168 -121.384 587.547 -129.288C594.064 -137.192 604.326 -141.144 618.331 -141.144C630.811 -141.144 640.31 -137.4 646.827 -129.912C653.344 -122.563 656.603 -112.024 656.603 -98.296C656.603 -91.9173 655.702 -85.8853 653.899 -80.2C652.096 -74.5147 649.878 -69.384 647.243 -64.808C644.747 -60.3707 641.211 -54.616 636.635 -47.544L594.619 16.104H653.067V29H576.731V17.768Z" fill="#FFEFD8"/>
<circle cx="1234" cy="294" r="245.5" stroke="#FFEFD8" stroke-width="15"/>
<path d="M1240.77 545L1231 47L1313.08 59L1379.52 99L1418.6 139L1461.6 221L1487 391L1379.52 489L1330.66 521L1240.77 545Z" fill="#FFEFD8"/>
<path d="M1077 106L653 -364M987 323.666H239M95 49V323.666H239M239 323.666V486.841M1089.5 1505H764.5M1089.5 1305H911" stroke="#FFEFD8" stroke-width="15" stroke-linecap="round" stroke-linejoin="round"/>
<path d="M700.44 1407.17C681.454 1400 667.53 1414.34 667.53 1414.34C667.53 1414.34 651.918 1401.69 632.51 1405.48C613.101 1409.28 605.928 1424.89 605.928 1424.89C605.928 1424.89 577.237 1424.89 570.908 1446.83C564.579 1468.77 590.738 1480.17 590.738 1480.17C590.738 1480.17 592.004 1494.51 616.054 1500C640.104 1505.48 651.918 1487.34 651.918 1487.34C651.918 1487.34 667.53 1501.26 682.719 1496.62C697.909 1491.98 705.926 1478.06 705.926 1478.06C705.926 1478.06 736.305 1481.85 741.368 1461.6C746.431 1441.35 719.427 1434.6 719.427 1434.6C719.427 1434.6 719.427 1414.34 700.44 1407.17Z" stroke="#FFEFD8" stroke-width="10"/>
<path d="M587.784 1495.35L588.532 1494.69L586.078 1491.92L586.804 1495.55L587.784 1495.35ZM587.784 1495.35C588.532 1494.69 588.532 1494.69 588.532 1494.69L588.533 1494.69L588.534 1494.69L588.536 1494.7L588.546 1494.71L588.58 1494.75C588.61 1494.78 588.653 1494.83 588.708 1494.89C588.818 1495.02 588.975 1495.21 589.167 1495.44C589.551 1495.9 590.077 1496.55 590.643 1497.31C591.76 1498.81 593.097 1500.8 593.782 1502.59C594.407 1504.23 594.876 1505.6 594.999 1506.54C595.031 1506.78 595.046 1507.04 595.02 1507.29C594.995 1507.53 594.922 1507.84 594.712 1508.11C594.187 1508.81 593.38 1508.68 592.953 1508.54C592.15 1508.27 591.45 1507.85 590.789 1506.99C590.168 1506.18 589.599 1505.01 588.958 1503.3C588.305 1501.56 587.767 1499.62 587.394 1498.13C587.207 1497.38 587.06 1496.74 586.959 1496.28C586.909 1496.05 586.87 1495.87 586.844 1495.75C586.831 1495.68 586.821 1495.64 586.814 1495.6L586.806 1495.56L586.804 1495.55L586.804 1495.55L586.804 1495.55L586.804 1495.55C586.804 1495.55 586.804 1495.55 587.784 1495.35Z" fill="#FFEFD8" stroke="#FFEFD8" stroke-width="2"/>
<path d="M608.037 1514.34L608.785 1513.68L606.331 1510.91L607.057 1514.54L608.037 1514.34ZM608.037 1514.34C608.785 1513.68 608.785 1513.68 608.785 1513.68L608.786 1513.68L608.787 1513.68L608.789 1513.68L608.798 1513.69L608.833 1513.73C608.863 1513.77 608.906 1513.82 608.961 1513.88C609.071 1514.01 609.228 1514.19 609.42 1514.42C609.804 1514.89 610.33 1515.54 610.896 1516.3C612.013 1517.8 613.35 1519.79 614.035 1521.58C614.66 1523.22 615.129 1524.59 615.252 1525.53C615.284 1525.77 615.299 1526.03 615.273 1526.27C615.248 1526.51 615.175 1526.82 614.965 1527.1C614.44 1527.79 613.633 1527.67 613.206 1527.53C612.403 1527.26 611.703 1526.83 611.042 1525.97C610.421 1525.17 609.852 1524 609.21 1522.29C608.558 1520.55 608.02 1518.61 607.647 1517.12C607.46 1516.37 607.313 1515.72 607.212 1515.27C607.162 1515.04 607.123 1514.86 607.097 1514.73C607.084 1514.67 607.074 1514.62 607.067 1514.59L607.059 1514.55L607.057 1514.54L607.057 1514.54L607.057 1514.54L607.057 1514.54C607.057 1514.54 607.057 1514.54 608.037 1514.34Z" fill="#FFEFD8" stroke="#FFEFD8" stroke-width="2"/>
<path d="M619.007 1509.28L619.755 1508.61L617.301 1505.85L618.026 1509.47L619.007 1509.28ZM619.007 1509.28C619.755 1508.61 619.755 1508.61 619.755 1508.61L619.755 1508.62L619.756 1508.62L619.759 1508.62L619.768 1508.63L619.803 1508.67C619.832 1508.7 619.876 1508.75 619.931 1508.82C620.04 1508.94 620.198 1509.13 620.39 1509.36C620.774 1509.82 621.299 1510.48 621.866 1511.24C622.982 1512.73 624.32 1514.72 625.005 1516.52C625.63 1518.15 626.098 1519.53 626.222 1520.46C626.254 1520.71 626.269 1520.96 626.243 1521.21C626.218 1521.45 626.145 1521.76 625.935 1522.04C625.409 1522.73 624.603 1522.61 624.176 1522.46C623.373 1522.2 622.672 1521.77 622.012 1520.91C621.39 1520.1 620.821 1518.93 620.18 1517.22C619.528 1515.48 618.99 1513.54 618.617 1512.05C618.43 1511.3 618.282 1510.66 618.182 1510.21C618.132 1509.98 618.093 1509.8 618.067 1509.67C618.054 1509.61 618.044 1509.56 618.037 1509.53L618.029 1509.49L618.027 1509.48L618.027 1509.48L618.026 1509.47L618.026 1509.47C618.026 1509.47 618.026 1509.47 619.007 1509.28Z" fill="#FFEFD8" stroke="#FFEFD8" stroke-width="2"/>
<path d="M646.854 1499.15L647.603 1498.49L645.149 1495.72L645.874 1499.35L646.854 1499.15ZM646.854 1499.15C647.603 1498.49 647.603 1498.49 647.603 1498.49L647.603 1498.49L647.604 1498.49L647.607 1498.49L647.616 1498.5L647.65 1498.54C647.68 1498.58 647.723 1498.63 647.778 1498.69C647.888 1498.82 648.045 1499 648.238 1499.23C648.622 1499.7 649.147 1500.35 649.713 1501.11C650.83 1502.61 652.167 1504.6 652.852 1506.39C653.477 1508.03 653.946 1509.4 654.069 1510.34C654.102 1510.58 654.117 1510.84 654.091 1511.08C654.065 1511.32 653.993 1511.63 653.783 1511.91C653.257 1512.6 652.451 1512.48 652.023 1512.34C651.221 1512.07 650.52 1511.64 649.859 1510.78C649.238 1509.98 648.669 1508.81 648.028 1507.1C647.376 1505.36 646.838 1503.42 646.465 1501.93C646.277 1501.18 646.13 1500.53 646.03 1500.08C645.979 1499.85 645.941 1499.67 645.914 1499.54C645.901 1499.48 645.891 1499.43 645.885 1499.4L645.877 1499.36L645.875 1499.35L645.874 1499.35L645.874 1499.35L645.874 1499.35C645.874 1499.35 645.874 1499.35 646.854 1499.15Z" fill="#FFEFD8" stroke="#FFEFD8" stroke-width="2"/>
<path d="M669.639 1505.06L670.387 1504.4L667.933 1501.63L668.658 1505.25L669.639 1505.06ZM669.639 1505.06C670.387 1504.4 670.387 1504.4 670.387 1504.4L670.387 1504.4L670.388 1504.4L670.391 1504.4L670.4 1504.41L670.434 1504.45C670.464 1504.48 670.507 1504.53 670.562 1504.6C670.672 1504.72 670.83 1504.91 671.022 1505.14C671.406 1505.6 671.931 1506.26 672.498 1507.02C673.614 1508.51 674.952 1510.5 675.636 1512.3C676.261 1513.93 676.73 1515.31 676.854 1516.24C676.886 1516.49 676.901 1516.74 676.875 1516.99C676.849 1517.23 676.777 1517.54 676.567 1517.82C676.041 1518.51 675.235 1518.39 674.808 1518.24C674.005 1517.98 673.304 1517.55 672.643 1516.69C672.022 1515.88 671.453 1514.71 670.812 1513C670.16 1511.27 669.622 1509.33 669.249 1507.83C669.061 1507.08 668.914 1506.44 668.814 1505.99C668.764 1505.76 668.725 1505.58 668.699 1505.45C668.686 1505.39 668.676 1505.34 668.669 1505.31L668.661 1505.27L668.659 1505.26L668.658 1505.26L668.658 1505.26L668.658 1505.26C668.658 1505.26 668.658 1505.25 669.639 1505.06Z" fill="#FFEFD8" stroke="#FFEFD8" stroke-width="2"/>
<path d="M694.955 1496.62L695.703 1495.96L693.249 1493.19L693.974 1496.82L694.955 1496.62ZM694.955 1496.62C695.703 1495.96 695.703 1495.96 695.703 1495.96L695.704 1495.96L695.704 1495.96L695.707 1495.96L695.716 1495.97L695.751 1496.01C695.781 1496.05 695.824 1496.09 695.879 1496.16C695.989 1496.29 696.146 1496.47 696.338 1496.7C696.722 1497.17 697.248 1497.82 697.814 1498.58C698.931 1500.07 700.268 1502.07 700.953 1503.86C701.578 1505.49 702.047 1506.87 702.17 1507.81C702.202 1508.05 702.217 1508.3 702.191 1508.55C702.166 1508.79 702.093 1509.1 701.883 1509.38C701.358 1510.07 700.551 1509.95 700.124 1509.8C699.321 1509.54 698.621 1509.11 697.96 1508.25C697.339 1507.45 696.77 1506.28 696.128 1504.57C695.476 1502.83 694.938 1500.89 694.565 1499.39C694.378 1498.65 694.231 1498 694.13 1497.55C694.08 1497.32 694.041 1497.14 694.015 1497.01C694.002 1496.95 693.992 1496.9 693.985 1496.87L693.977 1496.83L693.975 1496.82L693.975 1496.82L693.975 1496.82L693.975 1496.82C693.975 1496.82 693.974 1496.82 694.955 1496.62Z" fill="#FFEFD8" stroke="#FFEFD8" stroke-width="2"/>
<path d="M714.363 1495.78L715.111 1495.11L712.657 1492.35L713.383 1495.97L714.363 1495.78ZM714.363 1495.78C715.111 1495.11 715.111 1495.11 715.112 1495.11L715.112 1495.11L715.113 1495.11L715.115 1495.12L715.125 1495.13L715.159 1495.17C715.189 1495.2 715.232 1495.25 715.287 1495.31C715.397 1495.44 715.554 1495.63 715.746 1495.86C716.13 1496.32 716.656 1496.97 717.222 1497.73C718.339 1499.23 719.676 1501.22 720.361 1503.01C720.986 1504.65 721.455 1506.03 721.578 1506.96C721.61 1507.21 721.625 1507.46 721.599 1507.71C721.574 1507.95 721.502 1508.26 721.291 1508.53C720.766 1509.23 719.959 1509.1 719.532 1508.96C718.729 1508.69 718.029 1508.27 717.368 1507.41C716.747 1506.6 716.178 1505.43 715.537 1503.72C714.884 1501.98 714.346 1500.04 713.973 1498.55C713.786 1497.8 713.639 1497.16 713.538 1496.7C713.488 1496.48 713.449 1496.29 713.423 1496.17C713.41 1496.11 713.4 1496.06 713.393 1496.02L713.386 1495.99L713.384 1495.98L713.383 1495.97L713.383 1495.97L713.383 1495.97C713.383 1495.97 713.383 1495.97 714.363 1495.78Z" fill="#FFEFD8" stroke="#FFEFD8" stroke-width="2"/>
<path d="M708.457 1517.72L709.205 1517.05L706.751 1514.29L707.476 1517.91L708.457 1517.72ZM708.457 1517.72C709.205 1517.05 709.205 1517.05 709.205 1517.05L709.206 1517.05L709.206 1517.05L709.209 1517.06L709.218 1517.07L709.253 1517.11C709.283 1517.14 709.326 1517.19 709.381 1517.26C709.491 1517.38 709.648 1517.57 709.84 1517.8C710.224 1518.26 710.749 1518.92 711.316 1519.67C712.432 1521.17 713.77 1523.16 714.455 1524.95C715.08 1526.59 715.548 1527.97 715.672 1528.9C715.704 1529.15 715.719 1529.4 715.693 1529.65C715.668 1529.89 715.595 1530.2 715.385 1530.48C714.86 1531.17 714.053 1531.04 713.626 1530.9C712.823 1530.63 712.122 1530.21 711.462 1529.35C710.841 1528.54 710.272 1527.37 709.63 1525.66C708.978 1523.92 708.44 1521.98 708.067 1520.49C707.88 1519.74 707.733 1519.1 707.632 1518.64C707.582 1518.42 707.543 1518.23 707.517 1518.11C707.504 1518.05 707.494 1518 707.487 1517.97L707.479 1517.93L707.477 1517.92L707.477 1517.91L707.477 1517.91L707.476 1517.91C707.476 1517.91 707.476 1517.91 708.457 1517.72Z" fill="#FFEFD8" stroke="#FFEFD8" stroke-width="2"/>
<path d="M684.828 1514.34L685.576 1513.68L683.122 1510.91L683.848 1514.54L684.828 1514.34ZM684.828 1514.34C685.576 1513.68 685.576 1513.68 685.576 1513.68L685.577 1513.68L685.578 1513.68L685.58 1513.68L685.59 1513.69L685.624 1513.73C685.654 1513.77 685.697 1513.82 685.752 1513.88C685.862 1514.01 686.019 1514.19 686.211 1514.42C686.595 1514.89 687.121 1515.54 687.687 1516.3C688.804 1517.8 690.141 1519.79 690.826 1521.58C691.451 1523.22 691.92 1524.59 692.043 1525.53C692.075 1525.77 692.09 1526.03 692.064 1526.27C692.039 1526.51 691.966 1526.82 691.756 1527.1C691.231 1527.79 690.424 1527.67 689.997 1527.53C689.194 1527.26 688.494 1526.83 687.833 1525.97C687.212 1525.17 686.643 1524 686.001 1522.29C685.349 1520.55 684.811 1518.61 684.438 1517.12C684.251 1516.37 684.104 1515.72 684.003 1515.27C683.953 1515.04 683.914 1514.86 683.888 1514.73C683.875 1514.67 683.865 1514.62 683.858 1514.59L683.85 1514.55L683.848 1514.54L683.848 1514.54L683.848 1514.54L683.848 1514.54C683.848 1514.54 683.848 1514.54 684.828 1514.34Z" fill="#FFEFD8" stroke="#FFEFD8" stroke-width="2"/>
<path d="M692.423 1541.34L693.171 1540.68L690.717 1537.91L691.442 1541.54L692.423 1541.34ZM692.423 1541.34C693.171 1540.68 693.171 1540.68 693.171 1540.68L693.171 1540.68L693.172 1540.68L693.175 1540.69L693.184 1540.7L693.219 1540.74C693.248 1540.77 693.292 1540.82 693.347 1540.88C693.456 1541.01 693.614 1541.2 693.806 1541.43C694.19 1541.89 694.715 1542.54 695.282 1543.3C696.398 1544.8 697.736 1546.79 698.421 1548.58C699.046 1550.22 699.514 1551.59 699.638 1552.53C699.67 1552.77 699.685 1553.03 699.659 1553.28C699.634 1553.52 699.561 1553.83 699.351 1554.1C698.825 1554.8 698.019 1554.67 697.592 1554.53C696.789 1554.26 696.088 1553.84 695.428 1552.98C694.806 1552.17 694.237 1551 693.596 1549.29C692.944 1547.55 692.406 1545.61 692.033 1544.12C691.846 1543.37 691.698 1542.73 691.598 1542.27C691.548 1542.04 691.509 1541.86 691.483 1541.74C691.47 1541.68 691.46 1541.63 691.453 1541.59L691.445 1541.56L691.443 1541.55L691.443 1541.54L691.442 1541.54L691.442 1541.54C691.442 1541.54 691.442 1541.54 692.423 1541.34Z" fill="#FFEFD8" stroke="#FFEFD8" stroke-width="2"/>
<path d="M663.731 1541.34L664.48 1540.68L662.026 1537.91L662.751 1541.54L663.731 1541.34ZM663.731 1541.34C664.48 1540.68 664.48 1540.68 664.48 1540.68L664.48 1540.68L664.481 1540.68L664.483 1540.69L664.493 1540.7L664.527 1540.74C664.557 1540.77 664.6 1540.82 664.655 1540.88C664.765 1541.01 664.922 1541.2 665.114 1541.43C665.499 1541.89 666.024 1542.54 666.59 1543.3C667.707 1544.8 669.044 1546.79 669.729 1548.58C670.354 1550.22 670.823 1551.59 670.946 1552.53C670.979 1552.77 670.994 1553.03 670.967 1553.28C670.942 1553.52 670.87 1553.83 670.66 1554.1C670.134 1554.8 669.328 1554.67 668.9 1554.53C668.098 1554.26 667.397 1553.84 666.736 1552.98C666.115 1552.17 665.546 1551 664.905 1549.29C664.253 1547.55 663.715 1545.61 663.341 1544.12C663.154 1543.37 663.007 1542.73 662.907 1542.27C662.856 1542.04 662.818 1541.86 662.791 1541.74C662.778 1541.68 662.768 1541.63 662.762 1541.59L662.754 1541.56L662.752 1541.55L662.751 1541.54L662.751 1541.54L662.751 1541.54C662.751 1541.54 662.751 1541.54 663.731 1541.34Z" fill="#FFEFD8" stroke="#FFEFD8" stroke-width="2"/>
<path d="M649.386 1520.25L650.134 1519.58L647.68 1516.82L648.405 1520.44L649.386 1520.25ZM649.386 1520.25C650.134 1519.58 650.134 1519.58 650.134 1519.59L650.134 1519.59L650.135 1519.59L650.138 1519.59L650.147 1519.6L650.182 1519.64C650.211 1519.67 650.254 1519.72 650.309 1519.79C650.419 1519.91 650.577 1520.1 650.769 1520.33C651.153 1520.79 651.678 1521.45 652.245 1522.21C653.361 1523.7 654.699 1525.69 655.384 1527.49C656.009 1529.12 656.477 1530.5 656.601 1531.43C656.633 1531.68 656.648 1531.93 656.622 1532.18C656.596 1532.42 656.524 1532.73 656.314 1533.01C655.788 1533.7 654.982 1533.58 654.555 1533.43C653.752 1533.17 653.051 1532.74 652.391 1531.88C651.769 1531.07 651.2 1529.9 650.559 1528.19C649.907 1526.46 649.369 1524.51 648.996 1523.02C648.809 1522.27 648.661 1521.63 648.561 1521.18C648.511 1520.95 648.472 1520.77 648.446 1520.64C648.433 1520.58 648.423 1520.53 648.416 1520.5L648.408 1520.46L648.406 1520.45L648.405 1520.45L648.405 1520.44L648.405 1520.44C648.405 1520.44 648.405 1520.44 649.386 1520.25Z" fill="#FFEFD8" stroke="#FFEFD8" stroke-width="2"/>
<path d="M643.479 1541.34L644.228 1540.68L641.774 1537.91L642.499 1541.54L643.479 1541.34ZM643.479 1541.34C644.228 1540.68 644.228 1540.68 644.228 1540.68L644.228 1540.68L644.229 1540.68L644.232 1540.69L644.241 1540.7L644.275 1540.74C644.305 1540.77 644.348 1540.82 644.403 1540.88C644.513 1541.01 644.67 1541.2 644.863 1541.43C645.247 1541.89 645.772 1542.54 646.338 1543.3C647.455 1544.8 648.792 1546.79 649.477 1548.58C650.102 1550.22 650.571 1551.59 650.694 1552.53C650.727 1552.77 650.742 1553.03 650.716 1553.28C650.69 1553.52 650.618 1553.83 650.408 1554.1C649.882 1554.8 649.076 1554.67 648.648 1554.53C647.846 1554.26 647.145 1553.84 646.484 1552.98C645.863 1552.17 645.294 1551 644.653 1549.29C644.001 1547.55 643.463 1545.61 643.09 1544.12C642.902 1543.37 642.755 1542.73 642.655 1542.27C642.604 1542.04 642.566 1541.86 642.539 1541.74C642.526 1541.68 642.516 1541.63 642.51 1541.59L642.502 1541.56L642.5 1541.55L642.499 1541.54L642.499 1541.54L642.499 1541.54C642.499 1541.54 642.499 1541.54 643.479 1541.34Z" fill="#FFEFD8" stroke="#FFEFD8" stroke-width="2"/>
<path d="M1007 197L716.5 57.5" stroke="#FFEFD8" stroke-width="15" stroke-linecap="round" stroke-linejoin="round"/>
<path d="M890.735 560.885L1038.04 447.708" stroke="#FFEFD8" stroke-width="15" stroke-linecap="round" stroke-linejoin="round"/>
<path d="M1257.55 771.113L1247.88 449" stroke="#FFEFD8" stroke-width="15"/>
<path d="M1317.33 146.549L1452.48 -146" stroke="#FFEFD8" stroke-width="15" stroke-linecap="round" stroke-linejoin="round"/>
<path d="M1241.93 110.86L1232.26 -211.253" stroke="#FFEFD8" stroke-width="15" stroke-linecap="round" stroke-linejoin="round"/>
<path d="M1414.27 557.838L1355.56 479.102" stroke="#FFEFD8" stroke-width="15" stroke-linecap="round" stroke-linejoin="round"/>
<path d="M1093 1261.5C1093 1261.5 1085 1256 1071 1268.5C1057 1281 1057 1310 1057 1310" stroke="#FFEFD8" stroke-width="15"/>
<path d="M1093 1214C1093 1214 1068 1214 1044 1234.5C1020 1255 1018 1309 1018 1309" stroke="#FFEFD8" stroke-width="15"/>
<path d="M1093 1169C1093 1169 1055.5 1169 1020.5 1210C985.5 1251 978 1310 978 1310" stroke="#FFEFD8" stroke-width="15"/>
<path d="M1093 1125C1093 1125 1053.5 1125 992.5 1187C931.5 1249 941 1309 941 1309" stroke="#FFEFD8" stroke-width="15"/>
<path d="M1093 1081C1093 1081 1028.5 1076.5 961.001 1162C893.501 1247.5 907 1309 907 1309" stroke="#FFEFD8" stroke-width="15"/>
</svg>
